<svg xmlns="http://www.w3.org/2000/svg" viewBox="0 0 192 192">
  <defs>
    <linearGradient id="bg" x1="28" y1="24" x2="164" y2="168" gradientUnits="userSpaceOnUse">
      <stop offset="0" stop-color="#ffef9a"/>
      <stop offset="0.45" stop-color="#ff9f1c"/>
      <stop offset="1" stop-color="#e84d0e"/>
    </linearGradient>
    <linearGradient id="ring" x1="32" y1="28" x2="160" y2="164" gradientUnits="userSpaceOnUse">
      <stop offset="0" stop-color="#fff4b8"/>
      <stop offset="1" stop-color="#ff7a1a"/>
    </linearGradient>
    <filter id="shadow" x="-20%" y="-20%" width="140%" height="140%">
      <feDropShadow dx="0" dy="8" stdDeviation="8" flood-color="#2a0800" flood-opacity="0.38"/>
    </filter>
  </defs>
  <rect width="192" height="192" rx="44" fill="#1b0803"/>
  <circle cx="96" cy="96" r="74" fill="url(#bg)" filter="url(#shadow)"/>
  <circle cx="96" cy="96" r="64" fill="none" stroke="url(#ring)" stroke-width="8"/>
  <path d="M57 123c8 8 20 12 36 12 18 0 32-8 32-22 0-13-10-18-31-22-13-3-18-5-18-11 0-6 6-10 16-10 11 0 19 4 27 11l17-19c-11-11-26-17-43-17-25 0-42 14-42 35 0 22 18 29 39 33 11 2 15 5 15 10 0 6-6 9-17 9-13 0-23-5-32-13l-15 4Z" fill="#fff7df"/>
  <path d="M114 61h50v24h-25v60h-25V85H89V61h25Z" fill="#fff7df"/>
  <path d="M58 123c8 8 20 12 36 12 18 0 32-8 32-22 0-13-10-18-31-22-13-3-18-5-18-11 0-6 6-10 16-10 11 0 19 4 27 11l17-19c-11-11-26-17-43-17-25 0-42 14-42 35 0 22 18 29 39 33 11 2 15 5 15 10 0 6-6 9-17 9-13 0-23-5-32-13l-16 20Z" fill="none" stroke="#5d1908" stroke-width="4" stroke-linejoin="round" opacity="0.45"/>
  <path d="M114 61h50v24h-25v60h-25V85H89V61h25Z" fill="none" stroke="#5d1908" stroke-width="4" stroke-linejoin="round" opacity="0.45"/>
</svg>
